name rise31.4854peak64.571fall78.6902.mot
datacolumns 19
datarows 11
range 9.69496100000000 9.71163500000000
endheader
time	ground_force1_vx	ground_force1_vy	ground_force1_vz	ground_force1_px	ground_force1_py	ground_force1_pz	ground_force2_vx	ground_force2_vy	ground_force2_vz	ground_force2_px	ground_force2_py	ground_force2_pz	ground_torque1_x	ground_torque1_y	ground_torque1_z	ground_torque2_x	ground_torque2_y	ground_torque2_z	
9.69496100000000	-3.65616800000000	41.02851600000000	-13.68817000000000	0.26997200000000	0.00000000000000	0.04656000000000	-58.55714100000000	770.49203799999998	-43.91957100000000	0.09260400000000	0.00000000000000	-0.09370800000000	0.00000000000000	-9.12576300000000	0.00000000000000	0.00000000000000	-17.95937800000000	0.00000000000000	
9.69663600000000	-3.78617700000000	48.31164500000000	-15.44101300000000	0.27726200000000	0.00000000000000	0.04808600000000	-59.32564600000000	767.59806200000003	-43.48225900000000	0.09183600000000	0.00000000000000	-0.09366300000000	0.00000000000000	-10.42304300000000	0.00000000000000	0.00000000000000	-18.00297100000000	0.00000000000000	
9.69829400000000	-3.78452500000000	55.74726000000000	-17.05250100000000	0.28388000000000	0.00000000000000	0.04945200000000	-60.11360200000000	764.59472100000005	-43.02984300000000	0.09107200000000	0.00000000000000	-0.09361500000000	0.00000000000000	-11.64529700000000	0.00000000000000	0.00000000000000	-18.05047300000000	0.00000000000000	
9.69996500000000	-3.63986800000000	63.24520200000000	-18.48702000000000	0.28993700000000	0.00000000000000	0.05068400000000	-60.91986300000000	761.47780499999999	-42.56180100000000	0.09031400000000	0.00000000000000	-0.09356200000000	0.00000000000000	-12.76485400000000	0.00000000000000	0.00000000000000	-18.10162200000000	0.00000000000000	
9.70163000000000	-3.34658800000000	70.73617200000000	-19.72082700000000	0.29551800000000	0.00000000000000	0.05180400000000	-61.74316300000000	758.24303399999997	-42.07761200000000	0.08956200000000	0.00000000000000	-0.09350600000000	0.00000000000000	-13.76193800000000	0.00000000000000	0.00000000000000	-18.15612900000000	0.00000000000000	
9.70330000000000	-2.90452400000000	78.17406500000000	-20.74224500000000	0.30069100000000	0.00000000000000	0.05282800000000	-62.58210900000000	754.88608099999999	-41.57676000000000	0.08881700000000	0.00000000000000	-0.09344400000000	0.00000000000000	-14.62508600000000	0.00000000000000	0.00000000000000	-18.21367700000000	0.00000000000000	
9.70496500000000	-2.31830700000000	85.53601300000000	-21.55084000000000	0.30551000000000	0.00000000000000	0.05377000000000	-63.43518400000000	751.40257899999995	-41.05873800000000	0.08808000000000	0.00000000000000	-0.09337800000000	0.00000000000000	-15.35081700000000	0.00000000000000	0.00000000000000	-18.27392300000000	0.00000000000000	
9.70663600000000	-1.59642200000000	92.82050000000000	-22.15582100000000	0.31002000000000	0.00000000000000	0.05464000000000	-64.30074600000000	747.78814399999999	-40.52305200000000	0.08735300000000	0.00000000000000	-0.09330800000000	0.00000000000000	-15.94270800000000	0.00000000000000	0.00000000000000	-18.33649900000000	0.00000000000000	
9.70831000000000	-0.75010700000000	100.04404500000000	-22.57392200000000	0.31425700000000	0.00000000000000	0.05544900000000	-65.17703299999999	744.03839100000005	-39.96923000000000	0.08663700000000	0.00000000000000	-0.09323200000000	0.00000000000000	-16.41004200000000	0.00000000000000	0.00000000000000	-18.40101200000000	0.00000000000000	
9.70996600000000	0.20776800000000	107.23697799999999	-22.82703900000000	0.31825000000000	0.00000000000000	0.05620300000000	-66.06216300000000	740.14895400000000	-39.39682300000000	0.08593100000000	0.00000000000000	-0.09315200000000	0.00000000000000	-16.76622100000000	0.00000000000000	0.00000000000000	-18.46704200000000	0.00000000000000	
9.71163500000000	1.26377200000000	114.43881000000000	-22.93985400000000	0.32202500000000	0.00000000000000	0.05690900000000	-66.95413300000000	736.11550000000000	-38.80541100000000	0.08523800000000	0.00000000000000	-0.09306600000000	0.00000000000000	-17.02711800000000	0.00000000000000	0.00000000000000	-18.53415000000000	0.00000000000000	
